<svg width="24" height="24" viewBox="0 0 24 24" fill="none" xmlns="http://www.w3.org/2000/svg">
<path d="M10.137 18.6015L9.27101 18.1015H9.27101L10.137 18.6015ZM8.38048 21.6439L9.24651 22.1439L8.38048 21.6439ZM2.09459 18.0148L1.22856 17.5148L2.09459 18.0148ZM3.85114 14.9723L4.71717 15.4723L3.85114 14.9723ZM6.49709 21.4827L5.55084 21.8061V21.8061L6.49709 21.4827ZM6.25324 20.7693L7.19948 20.4459V20.4459L6.25324 20.7693ZM3.91564 19.4197L3.72265 18.4385H3.72264L3.91564 19.4197ZM3.17596 19.5652L3.36895 20.5464H3.36895L3.17596 19.5652ZM5.50621 19.364L6.00621 18.498H6.00621L5.50621 19.364ZM1.54187 19.5757L0.721663 20.1478L1.54187 19.5757ZM10.6442 17.7024L9.84534 17.101L9.79734 17.1647L9.76006 17.2353L10.6442 17.7024ZM14.113 18.6015L14.979 18.1015H14.979L14.113 18.6015ZM15.8695 21.6439L16.7356 21.1439L15.8695 21.6439ZM22.1554 18.0148L23.0215 17.5148L22.1554 18.0148ZM20.3989 14.9723L19.5328 15.4723L20.3989 14.9723ZM17.7529 21.4827L18.6992 21.8061L18.6992 21.8061L17.7529 21.4827ZM17.9968 20.7693L17.0505 20.4459V20.4459L17.9968 20.7693ZM20.3344 19.4197L20.5274 18.4385L20.3344 19.4197ZM21.0741 19.5652L20.8811 20.5464L21.0741 19.5652ZM22.7081 19.5757L23.5284 20.1478L22.7081 19.5757ZM13.6014 17.6942H12.6014V17.9416L12.7167 18.1604L13.6014 17.6942ZM5.09163 13.3178L4.19561 13.7618L5.09163 13.3178ZM10.707 17.6191L10.9006 16.638L10.707 17.6191ZM13.6014 17.6592L13.4355 16.6731L13.6014 17.6592ZM19.3767 13.4364L18.4882 12.9775L19.3767 13.4364ZM4.74563 13.5693L3.99416 12.9095L4.74563 13.5693ZM4.26417 9.77051H5.26417C5.26417 5.90451 8.39817 2.77051 12.2642 2.77051V1.77051V0.770508C7.2936 0.770508 3.26417 4.79994 3.26417 9.77051H4.26417ZM12.2642 1.77051V2.77051C16.1302 2.77051 19.2642 5.90451 19.2642 9.77051H20.2642H21.2642C21.2642 4.79994 17.2347 0.770508 12.2642 0.770508V1.77051ZM10.137 18.6015L9.27101 18.1015L7.51446 21.1439L8.38048 21.6439L9.24651 22.1439L11.0031 19.1015L10.137 18.6015ZM2.09459 18.0148L2.96061 18.5148L4.71717 15.4723L3.85114 14.9723L2.98512 14.4723L1.22856 17.5148L2.09459 18.0148ZM6.49709 21.4827L7.44333 21.1592L7.19948 20.4459L6.25324 20.7693L5.307 21.0928L5.55084 21.8061L6.49709 21.4827ZM3.91564 19.4197L3.72264 18.4385L2.98297 18.584L3.17596 19.5652L3.36895 20.5464L4.10863 20.4009L3.91564 19.4197ZM6.25324 20.7693L7.19948 20.4459C7.06964 20.066 6.94369 19.6918 6.79887 19.3958C6.64191 19.0749 6.41079 18.7316 6.00621 18.498L5.50621 19.364L5.00621 20.23C4.93382 20.1882 4.93793 20.143 5.0023 20.2746C5.07881 20.431 5.16028 20.6636 5.307 21.0928L6.25324 20.7693ZM3.91564 19.4197L4.10863 20.4009C4.55369 20.3134 4.79584 20.2676 4.96956 20.2557C5.1157 20.2456 5.0786 20.2718 5.00621 20.23L5.50621 19.364L6.00621 18.498C5.60163 18.2644 5.18872 18.2359 4.83235 18.2604C4.50355 18.283 4.11651 18.361 3.72265 18.4385L3.91564 19.4197ZM2.09459 18.0148L1.22856 17.5148C0.997422 17.9151 0.766139 18.3108 0.63312 18.6415C0.509496 18.9488 0.31656 19.567 0.721663 20.1478L1.54187 19.5757L2.36208 19.0037C2.45779 19.1409 2.48137 19.2873 2.47708 19.3824C2.47398 19.4509 2.45787 19.4643 2.48864 19.3878C2.51705 19.3172 2.56688 19.2143 2.65062 19.0605C2.73332 18.9086 2.8348 18.7327 2.96061 18.5148L2.09459 18.0148ZM3.17596 19.5652L2.98297 18.584C2.73857 18.6321 2.54184 18.6707 2.37369 18.6993C2.2033 18.7283 2.09279 18.7416 2.0199 18.7452C1.94052 18.7491 1.96373 18.738 2.03498 18.7598C2.13335 18.7899 2.26572 18.8655 2.36208 19.0037L1.54187 19.5757L0.721663 20.1478C1.1323 20.7366 1.78648 20.7593 2.11922 20.7427C2.47396 20.7251 2.92139 20.6344 3.36895 20.5464L3.17596 19.5652ZM8.38048 21.6439L7.51446 21.1439C7.38865 21.3618 7.28705 21.5377 7.19684 21.6853C7.1055 21.8347 7.04134 21.9293 6.99437 21.9892C6.94351 22.0541 6.94706 22.0334 7.00488 21.9965C7.08502 21.9452 7.22363 21.8925 7.39033 21.9067L7.30501 22.9031L7.21969 23.8994C7.92525 23.9599 8.36414 23.4837 8.5685 23.2229C8.78838 22.9424 9.01537 22.5443 9.24651 22.1439L8.38048 21.6439ZM6.49709 21.4827L5.55084 21.8061C5.69839 22.2377 5.8436 22.6706 6.00569 22.9866C6.15773 23.283 6.5045 23.8382 7.21969 23.8994L7.30501 22.9031L7.39033 21.9067C7.55815 21.9211 7.6898 21.9979 7.76506 22.0681C7.81957 22.1189 7.82154 22.1445 7.78526 22.0738C7.75196 22.0089 7.70818 21.9066 7.6481 21.7445C7.58881 21.5846 7.5239 21.3949 7.44333 21.1592L6.49709 21.4827ZM3.85114 14.9723L4.71717 15.4723C5.15043 14.7219 5.33215 14.4169 5.4971 14.229L4.74563 13.5693L3.99416 12.9095C3.66592 13.2834 3.36995 13.8058 2.98512 14.4723L3.85114 14.9723ZM10.137 18.6015L11.0031 19.1015C11.2123 18.7392 11.3898 18.4319 11.5284 18.1696L10.6442 17.7024L9.76006 17.2353C9.64295 17.457 9.48718 17.7271 9.27101 18.1015L10.137 18.6015ZM14.113 18.6015L13.2469 19.1015L15.0035 22.1439L15.8695 21.6439L16.7356 21.1439L14.979 18.1015L14.113 18.6015ZM22.1554 18.0148L23.0215 17.5148L21.2649 14.4723L20.3989 14.9723L19.5328 15.4723L21.2894 18.5148L22.1554 18.0148ZM17.7529 21.4827L18.6992 21.8061L18.943 21.0928L17.9968 20.7693L17.0505 20.4459L16.8067 21.1592L17.7529 21.4827ZM20.3344 19.4197L20.1414 20.4009L20.8811 20.5464L21.0741 19.5652L21.267 18.584L20.5274 18.4385L20.3344 19.4197ZM17.9968 20.7693L18.943 21.0928C19.0897 20.6636 19.1712 20.431 19.2477 20.2746C19.3121 20.143 19.3162 20.1882 19.2438 20.23L18.7438 19.364L18.2438 18.498C17.8392 18.7316 17.6081 19.0749 17.4511 19.3958C17.3063 19.6918 17.1804 20.066 17.0505 20.4459L17.9968 20.7693ZM20.3344 19.4197L20.5274 18.4385C20.1335 18.361 19.7465 18.283 19.4177 18.2604C19.0613 18.2359 18.6484 18.2644 18.2438 18.498L18.7438 19.364L19.2438 20.23C19.1714 20.2718 19.1343 20.2456 19.2805 20.2557C19.4542 20.2676 19.6963 20.3134 20.1414 20.4009L20.3344 19.4197ZM22.1554 18.0148L21.2894 18.5148C21.4152 18.7327 21.5167 18.9086 21.5994 19.0605C21.6831 19.2143 21.733 19.3172 21.7614 19.3878C21.7921 19.4643 21.776 19.4509 21.7729 19.3824C21.7686 19.2873 21.7922 19.1409 21.8879 19.0037L22.7081 19.5757L23.5284 20.1478C23.9335 19.567 23.7405 18.9488 23.6169 18.6415C23.4839 18.3108 23.2526 17.9151 23.0215 17.5148L22.1554 18.0148ZM21.0741 19.5652L20.8811 20.5464C21.3286 20.6344 21.7761 20.7251 22.1308 20.7427C22.4635 20.7593 23.1177 20.7366 23.5284 20.1478L22.7081 19.5757L21.8879 19.0037C21.9843 18.8655 22.1167 18.7899 22.215 18.7598C22.2863 18.738 22.3095 18.7491 22.2301 18.7452C22.1572 18.7416 22.0467 18.7283 21.8763 18.6993C21.7082 18.6707 21.5114 18.6321 21.267 18.584L21.0741 19.5652ZM15.8695 21.6439L15.0035 22.1439C15.2346 22.5443 15.4616 22.9424 15.6815 23.2229C15.8859 23.4837 16.3248 23.9599 17.0303 23.8994L16.945 22.9031L16.8597 21.9067C17.0264 21.8925 17.165 21.9452 17.2451 21.9965C17.303 22.0334 17.3065 22.0541 17.2556 21.9892C17.2087 21.9293 17.1445 21.8347 17.0532 21.6853C16.963 21.5377 16.8614 21.3618 16.7356 21.1439L15.8695 21.6439ZM17.7529 21.4827L16.8067 21.1592C16.7261 21.3949 16.6612 21.5846 16.6019 21.7445C16.5418 21.9066 16.4981 22.0089 16.4648 22.0738C16.4285 22.1445 16.4304 22.1189 16.485 22.0681C16.5602 21.9979 16.6919 21.9211 16.8597 21.9067L16.945 22.9031L17.0303 23.8994C17.7455 23.8382 18.0923 23.283 18.2443 22.9866C18.4064 22.6706 18.5516 22.2377 18.6992 21.8061L17.7529 21.4827ZM14.113 18.6015L14.979 18.1015C14.7603 17.7227 14.6035 17.4508 14.4861 17.228L13.6014 17.6942L12.7167 18.1604C12.8562 18.4251 13.0355 18.7352 13.247 19.1015L14.113 18.6015ZM5.09163 13.3178L5.98766 12.8738C5.52481 11.9397 5.26417 10.887 5.26417 9.77051H4.26417H3.26417C3.26417 11.2018 3.59903 12.5578 4.19561 13.7618L5.09163 13.3178ZM12.2642 17.7705V16.7705C11.7967 16.7705 11.3408 16.7248 10.9006 16.638L10.707 17.6191L10.5135 18.6001C11.0805 18.712 11.666 18.7705 12.2642 18.7705V17.7705ZM10.707 17.6191L10.9006 16.638C8.74331 16.2124 6.9386 14.7929 5.98766 12.8738L5.09163 13.3178L4.19561 13.7618C5.41653 16.2257 7.73333 18.0517 10.5135 18.6001L10.707 17.6191ZM10.6442 17.7024L11.4432 18.3039L11.5059 18.2205L10.707 17.6191L9.90811 17.0176L9.84534 17.101L10.6442 17.7024ZM13.6014 17.6592L13.4355 16.6731C13.0552 16.7371 12.664 16.7705 12.2642 16.7705V17.7705V18.7705C12.7757 18.7705 13.2779 18.7277 13.7674 18.6454L13.6014 17.6592ZM13.6014 17.6942H14.6014V17.6592H13.6014H12.6014V17.6942H13.6014ZM20.2642 9.77051H19.2642C19.2642 10.9284 18.9838 12.0178 18.4882 12.9775L19.3767 13.4364L20.2652 13.8953C20.9039 12.6585 21.2642 11.2551 21.2642 9.77051H20.2642ZM19.3767 13.4364L18.4882 12.9775C17.4951 14.9004 15.6381 16.3024 13.4355 16.6731L13.6014 17.6592L13.7674 18.6454C16.6063 18.1676 18.9905 16.3634 20.2652 13.8953L19.3767 13.4364ZM20.3989 14.9723L21.2649 14.4723C20.8223 13.7056 20.4943 13.1164 20.0633 12.7094L19.3767 13.4364L18.69 14.1634C18.8547 14.3189 19.0179 14.5804 19.5328 15.4723L20.3989 14.9723ZM4.74563 13.5693L5.4971 14.229C5.48438 14.2435 5.47718 14.2477 5.48304 14.2436C5.48944 14.2391 5.50538 14.2288 5.53601 14.2136L5.09163 13.3178L4.64725 12.422C4.45532 12.5172 4.20748 12.6665 3.99416 12.9095L4.74563 13.5693Z" fill="#E1FF01"/>
</svg>
