<svg width="21" height="19" viewBox="0 0 21 19" fill="none" xmlns="http://www.w3.org/2000/svg">
<path d="M10.3401 6.17349L13.3462 9.17963L13.3605 9.02217C13.3605 7.44274 12.077 6.15918 10.4976 6.15918L10.3401 6.17349Z" fill="#636363"/>
<path d="M10.4975 4.25104C13.1315 4.25104 15.2692 6.38875 15.2692 9.0227C15.2692 9.63824 15.1451 10.2252 14.9304 10.7643L17.7218 13.5557C19.1628 12.3533 20.2985 10.7978 20.9999 9.0227C19.3442 4.83321 15.274 1.86523 10.4976 1.86523C9.16149 1.86523 7.88272 2.1038 6.69458 2.53325L8.75593 4.58981C9.29507 4.37988 9.88198 4.25104 10.4975 4.25104Z" fill="#636363"/>
<path d="M0.954313 1.65036L3.13018 3.82623L3.56442 4.26047C1.98977 5.49155 0.744376 7.12824 0 9.02255C1.651 13.212 5.72597 16.18 10.4976 16.18C11.9769 16.18 13.3892 15.8937 14.6824 15.3736L15.088 15.7792L17.8699 18.5658L19.0866 17.3538L2.17108 0.433594L0.954313 1.65036ZM6.23178 6.92304L7.70622 8.39748C7.66327 8.60268 7.63464 8.80783 7.63464 9.02255C7.63464 10.602 8.9182 11.8855 10.4976 11.8855C10.7124 11.8855 10.9175 11.8569 11.118 11.814L12.5924 13.2884C11.9577 13.6033 11.2516 13.7942 10.4976 13.7942C7.86368 13.7942 5.72597 11.6565 5.72597 9.02255C5.72597 8.26865 5.91685 7.56243 6.23178 6.92304Z" fill="#636363"/>
</svg>
