<svg width="23" height="17" viewBox="0 0 23 17" fill="none" xmlns="http://www.w3.org/2000/svg">
<path d="M1.30462 8.33691L0.314674 8.47834L0.324334 8.54596L0.3431 8.61164L1.30462 8.33691ZM7.72792 1.74727L7.32178 2.66108L7.72792 1.74727ZM8.2589 1.98326L8.66504 1.06945V1.06945L8.2589 1.98326ZM10.2663 2.75634L10.0587 3.73454L10.2663 2.75634ZM14.3503 1.98326L13.9442 1.06945V1.06945L14.3503 1.98326ZM12.3429 2.75634L12.5506 3.73454L12.3429 2.75634ZM14.8646 13.8746L15.7058 13.3339L15.7058 13.3339L14.8646 13.8746ZM7.59931 14.1007L6.75813 13.56V13.56L7.59931 14.1007ZM2.74683 13.3846L3.70835 13.1099L2.74683 13.3846ZM20.6952 12.6031L19.7052 12.4616L20.6952 12.6031ZM21.5283 6.77136L22.5182 6.91278L21.5283 6.77136ZM7.97368 13.5184L8.81486 14.0591V14.0591L7.97368 13.5184ZM14.6356 13.5184L13.7944 14.0591L13.7944 14.0591L14.6356 13.5184ZM14.8813 1.74727L15.2875 2.66108L14.8813 1.74727ZM1.08097 6.77136L0.0910233 6.91278L1.08097 6.77136ZM4.30462 6.33691C3.75234 6.33691 3.30462 6.78463 3.30462 7.33691C3.30462 7.8892 3.75234 8.33691 4.30462 8.33691V6.33691ZM8.30462 8.33691C8.85691 8.33691 9.30462 7.8892 9.30462 7.33691C9.30462 6.78463 8.85691 6.33691 8.30462 6.33691V8.33691ZM5.30462 9.33691C5.30462 9.8892 5.75234 10.3369 6.30462 10.3369C6.85691 10.3369 7.30462 9.8892 7.30462 9.33691H5.30462ZM7.30462 5.33691C7.30462 4.78463 6.85691 4.33691 6.30462 4.33691C5.75234 4.33691 5.30462 4.78463 5.30462 5.33691H7.30462ZM2.74683 13.3846L3.70835 13.1099L2.26615 8.06219L1.30462 8.33691L0.3431 8.61164L1.7853 13.6593L2.74683 13.3846ZM1.30462 8.33691L2.29457 8.19549L2.07092 6.62994L1.08097 6.77136L0.0910233 6.91278L0.314674 8.47834L1.30462 8.33691ZM7.97368 13.5184L7.1325 12.9776L6.75813 13.56L7.59931 14.1007L8.44049 14.6415L8.81486 14.0591L7.97368 13.5184ZM14.8646 13.8746L15.7058 13.3339L15.4767 12.9776L14.6356 13.5184L13.7944 14.0591L14.0234 14.4154L14.8646 13.8746ZM7.72792 1.74727L7.32178 2.66108L7.85276 2.89707L8.2589 1.98326L8.66504 1.06945L8.13406 0.833456L7.72792 1.74727ZM14.3503 1.98326L14.7565 2.89707L15.2875 2.66108L14.8813 1.74727L14.4752 0.833457L13.9442 1.06945L14.3503 1.98326ZM5.79424 1.33691V2.33691C6.32049 2.33691 6.84089 2.44735 7.32178 2.66108L7.72792 1.74727L8.13406 0.833456C7.39745 0.506074 6.60033 0.336914 5.79424 0.336914V1.33691ZM8.2589 1.98326L7.85276 2.89707C8.81021 3.3226 9.41902 3.59875 10.0587 3.73454L10.2663 2.75634L10.474 1.77813C10.0875 1.69608 9.70006 1.52946 8.66504 1.06945L8.2589 1.98326ZM14.3503 1.98326L13.9442 1.06945C12.9092 1.52946 12.5218 1.69608 12.1352 1.77813L12.3429 2.75634L12.5506 3.73454C13.1902 3.59875 13.799 3.3226 14.7565 2.89707L14.3503 1.98326ZM10.2663 2.75634L10.0587 3.73454C10.8802 3.90892 11.7291 3.90892 12.5506 3.73454L12.3429 2.75634L12.1352 1.77813C11.5876 1.89439 11.0216 1.89439 10.474 1.77813L10.2663 2.75634ZM17.543 15.3369V14.3369C16.7998 14.3369 16.1076 13.959 15.7058 13.3339L14.8646 13.8746L14.0234 14.4154C14.7933 15.613 16.1193 16.3369 17.543 16.3369V15.3369ZM7.59931 14.1007L6.75813 13.56C6.44684 14.0442 5.91069 14.3369 5.33504 14.3369V15.3369V16.3369C6.59122 16.3369 7.7612 15.6982 8.44049 14.6415L7.59931 14.1007ZM2.74683 13.3846L1.7853 13.6593C2.23813 15.2442 3.68673 16.3369 5.33504 16.3369V15.3369V14.3369C4.57969 14.3369 3.91586 13.8362 3.70835 13.1099L2.74683 13.3846ZM20.6952 12.6031L19.7052 12.4616C19.5515 13.5377 18.63 14.3369 17.543 14.3369V15.3369V16.3369C19.6253 16.3369 21.3906 14.8058 21.6851 12.7445L20.6952 12.6031ZM21.5283 6.77136L22.5182 6.91278C23.014 3.44209 20.3209 0.336914 16.815 0.336914V1.33691V2.33691C19.1038 2.33691 20.862 4.36411 20.5383 6.62994L21.5283 6.77136ZM7.97368 13.5184L8.81486 14.0591C9.97996 12.2468 12.6293 12.2468 13.7944 14.0591L14.6356 13.5184L15.4767 12.9776C13.5244 9.94059 9.08488 9.94059 7.1325 12.9776L7.97368 13.5184ZM14.8813 1.74727L15.2875 2.66108C15.7684 2.44735 16.2888 2.33691 16.815 2.33691V1.33691V0.336914C16.0089 0.336914 15.2118 0.506074 14.4752 0.833457L14.8813 1.74727ZM1.08097 6.77136L2.07092 6.62994C1.74723 4.36411 3.50541 2.33691 5.79424 2.33691V1.33691V0.336914C2.28832 0.336914 -0.40479 3.44209 0.0910233 6.91278L1.08097 6.77136ZM6.30462 9.33691H7.30462V5.33691H6.30462H5.30462V9.33691H6.30462ZM21.5283 6.77136L20.5383 6.62994L19.7052 12.4616L20.6952 12.6031L21.6851 12.7445L22.5182 6.91278L21.5283 6.77136ZM4.30462 7.33691V8.33691H6.30462V7.33691V6.33691H4.30462V7.33691ZM6.30462 7.33691V8.33691H8.30462V7.33691V6.33691H6.30462V7.33691Z" fill="#E1FF01"/>
</svg>
