<svg width="24" height="24" viewBox="0 0 24 24" fill="none" xmlns="http://www.w3.org/2000/svg">
<path d="M12.0768 23.6663C10.4629 23.6663 8.94627 23.3599 7.52682 22.747C6.10738 22.1341 4.87266 21.3031 3.82266 20.2538C2.77266 19.2046 1.9416 17.9699 1.32949 16.5497C0.71738 15.1295 0.410936 13.6128 0.410158 11.9997C0.40938 10.3866 0.715824 8.8699 1.32949 7.44967C1.94316 6.02945 2.77421 4.79473 3.82266 3.74551C4.8711 2.69629 6.10582 1.86523 7.52682 1.25234C8.94782 0.639452 10.4645 0.333008 12.0768 0.333008C13.6892 0.333008 15.2058 0.639452 16.6268 1.25234C18.0478 1.86523 19.2825 2.69629 20.331 3.74551C21.3794 4.79473 22.2109 6.02945 22.8253 7.44967C23.4398 8.8699 23.7458 10.3866 23.7435 11.9997C23.7412 13.6128 23.4347 15.1295 22.8242 16.5497C22.2136 17.9699 21.3825 19.2046 20.331 20.2538C19.2794 21.3031 18.0447 22.1345 16.6268 22.7482C15.2089 23.3618 13.6923 23.6679 12.0768 23.6663ZM10.9102 21.2747V18.9997C10.2685 18.9997 9.71938 18.7714 9.26283 18.3148C8.80627 17.8583 8.5776 17.3088 8.57682 16.6663V15.4997L2.97682 9.89967C2.91849 10.2497 2.86521 10.5997 2.81699 10.9497C2.76877 11.2997 2.74427 11.6497 2.74349 11.9997C2.74349 14.3525 3.5166 16.4136 5.06282 18.183C6.60905 19.9524 8.55816 20.983 10.9102 21.2747ZM18.9602 18.2997C19.349 17.8719 19.699 17.4103 20.0102 16.9148C20.3213 16.4194 20.5787 15.9041 20.7825 15.369C20.9863 14.8339 21.1418 14.2844 21.2492 13.7205C21.3565 13.1566 21.4102 12.583 21.4102 11.9997C21.4102 10.0941 20.8801 8.35384 19.82 6.77884C18.7599 5.20384 17.3455 4.06634 15.5768 3.36634V3.83301C15.5768 4.47467 15.3485 5.02417 14.892 5.48151C14.4354 5.93884 13.8859 6.16712 13.2435 6.16634H10.9102V8.49967C10.9102 8.83023 10.7982 9.10751 10.5742 9.33151C10.3502 9.55551 10.0733 9.66712 9.74349 9.66634H7.41016V11.9997H14.4102C14.7407 11.9997 15.018 12.1117 15.242 12.3357C15.466 12.5597 15.5776 12.8366 15.5768 13.1663V16.6663H16.7435C17.249 16.6663 17.706 16.8172 18.1143 17.119C18.5227 17.4208 18.8046 17.8143 18.9602 18.2997Z" fill="#565656"/>
</svg>
