<svg width="38" height="33" viewBox="0 0 38 33" fill="none" xmlns="http://www.w3.org/2000/svg">
<path d="M35.72 0.645508H2.28C1.67531 0.645508 1.09538 0.886323 0.667797 1.31498C0.240214 1.74363 0 2.32501 0 2.93122V30.3598C0 30.966 0.240214 31.5474 0.667797 31.976C1.09538 32.4047 1.67531 32.6455 2.28 32.6455H35.72C36.3247 32.6455 36.9046 32.4047 37.3322 31.976C37.7598 31.5474 38 30.966 38 30.3598V2.93122C38 2.32501 37.7598 1.74363 37.3322 1.31498C36.9046 0.886323 36.3247 0.645508 35.72 0.645508ZM2.28 2.16932H35.72C35.9216 2.16932 36.1149 2.24959 36.2574 2.39247C36.3999 2.53536 36.48 2.72915 36.48 2.93122V24.3407L30.2309 18.076C30.0191 17.8629 29.7674 17.6938 29.4902 17.5785C29.2131 17.4631 28.916 17.4037 28.6159 17.4037C28.3158 17.4037 28.0187 17.4631 27.7416 17.5785C27.4644 17.6938 27.2127 17.8629 27.0009 18.076L22.6632 22.4246L13.7674 13.5046C13.5556 13.2915 13.3039 13.1224 13.0267 13.007C12.7496 12.8917 12.4525 12.8323 12.1524 12.8323C11.8523 12.8323 11.5552 12.8917 11.2781 13.007C11.0009 13.1224 10.7492 13.2915 10.5374 13.5046L1.52 22.5503V2.93122C1.52 2.72915 1.60007 2.53536 1.7426 2.39247C1.88513 2.24959 2.07844 2.16932 2.28 2.16932ZM1.52 30.3598V24.7103L11.6223 14.5827C11.6929 14.5118 11.7767 14.4556 11.869 14.4173C11.9612 14.3789 12.0601 14.3592 12.16 14.3592C12.2599 14.3592 12.3588 14.3789 12.451 14.4173C12.5433 14.4556 12.6271 14.5118 12.6977 14.5827L29.1954 31.1217H2.28C2.07844 31.1217 1.88513 31.0414 1.7426 30.8985C1.60007 30.7557 1.52 30.5619 1.52 30.3598ZM35.72 31.1217H31.35L23.75 23.5027L28.0877 19.1541C28.1583 19.0832 28.2421 19.027 28.3344 18.9887C28.4266 18.9504 28.5255 18.9306 28.6254 18.9306C28.7253 18.9306 28.8242 18.9504 28.9164 18.9887C29.0087 19.027 29.0925 19.0832 29.1631 19.1541L36.48 26.495V30.3598C36.48 30.5619 36.3999 30.7557 36.2574 30.8985C36.1149 31.0414 35.9216 31.1217 35.72 31.1217ZM22.8 11.3122C22.8 11.0108 22.8891 10.7162 23.0562 10.4656C23.2232 10.215 23.4606 10.0197 23.7383 9.90436C24.0161 9.78902 24.3217 9.75885 24.6165 9.81764C24.9114 9.87644 25.1822 10.0216 25.3948 10.2347C25.6074 10.4478 25.7521 10.7193 25.8108 11.0149C25.8694 11.3105 25.8393 11.6169 25.7243 11.8953C25.6093 12.1738 25.4144 12.4117 25.1645 12.5792C24.9145 12.7466 24.6206 12.836 24.32 12.836C23.9169 12.836 23.5303 12.6754 23.2452 12.3897C22.9601 12.1039 22.8 11.7163 22.8 11.3122Z" fill="#565656"/>
</svg>
