<svg width="18" height="20" viewBox="0 0 18 20" fill="none" xmlns="http://www.w3.org/2000/svg">
<path d="M8.92521 7.15043L8.45163 8.03118L8.92521 7.15043ZM8.30977 6.78683L7.69414 7.57486L8.30977 6.78683ZM7.53789 4.85174L8.53786 4.84317L7.53789 4.85174ZM7.57279 5.56571L8.55692 5.38824L7.57279 5.56571ZM16.1317 6.60794L17.1317 6.60793L16.1317 6.60794ZM16.0236 8.32804L15.0777 8.00363L16.0236 8.32804ZM12.2411 8.93339L12.7147 8.05264L12.2411 8.93339ZM13.8073 9.65273L13.6451 10.6395L13.8073 9.65273ZM14.7361 4.27946L15.2074 3.39754L14.7361 4.27946ZM15.3638 4.64881L14.7478 5.43651L15.3638 4.64881ZM16.1019 5.88019L17.087 5.70817L16.1019 5.88019ZM11.4158 2.50476L10.9444 3.38669L11.4158 2.50476ZM9.85106 1.79002L9.68985 2.77694L9.85106 1.79002ZM7.63041 3.13401L8.57952 3.44893L7.63041 3.13401ZM8.55127 3.91165C8.55127 3.35937 8.10355 2.91165 7.55127 2.91165C6.99898 2.91165 6.55127 3.35937 6.55127 3.91165H8.55127ZM7.55127 15.9117H8.55127H7.55127ZM11.4158 2.50476L10.9444 3.38669L14.2647 5.16139L14.7361 4.27946L15.2074 3.39754L11.8872 1.62284L11.4158 2.50476ZM12.2411 8.93339L12.7147 8.05264L9.39879 6.26968L8.92521 7.15043L8.45163 8.03118L11.7675 9.81414L12.2411 8.93339ZM8.92521 7.15043L9.39879 6.26968C9.04629 6.08014 8.97653 6.03874 8.92541 5.9988L8.30977 6.78683L7.69414 7.57486C7.91133 7.74455 8.16243 7.87568 8.45163 8.03118L8.92521 7.15043ZM7.53789 4.85174L6.53793 4.86032C6.54075 5.18865 6.53975 5.47193 6.58867 5.74317L7.57279 5.56571L8.55692 5.38824C8.54541 5.3244 8.54129 5.24339 8.53786 4.84317L7.53789 4.85174ZM8.30977 6.78683L8.92541 5.9988C8.73172 5.84748 8.60054 5.63013 8.55692 5.38824L7.57279 5.56571L6.58867 5.74317C6.71953 6.46885 7.11306 7.12091 7.69414 7.57486L8.30977 6.78683ZM16.1317 6.60794L15.1317 6.60796C15.1317 7.08652 15.1315 7.40852 15.1194 7.65153C15.1073 7.89814 15.0854 7.9812 15.0777 8.00363L16.0236 8.32804L16.9695 8.65246C17.07 8.35948 17.1022 8.05072 17.117 7.75025C17.132 7.44618 17.1317 7.06583 17.1317 6.60793L16.1317 6.60794ZM12.2411 8.93339L11.7675 9.81414C12.1708 10.031 12.5056 10.2114 12.7806 10.3421C13.0522 10.4714 13.3394 10.5892 13.6451 10.6395L13.8073 9.65273L13.9695 8.66597C13.9461 8.66213 13.8626 8.64208 13.6396 8.53603C13.4199 8.43152 13.1362 8.27928 12.7147 8.05264L12.2411 8.93339ZM16.0236 8.32804L15.0777 8.00363C14.9194 8.46522 14.451 8.74514 13.9695 8.66597L13.8073 9.65273L13.6451 10.6395C15.0896 10.877 16.4946 10.0372 16.9695 8.65246L16.0236 8.32804ZM14.7361 4.27946L14.2647 5.16139C14.6245 5.35374 14.6958 5.39584 14.7478 5.43651L15.3638 4.64881L15.9799 3.86111C15.7589 3.68826 15.5026 3.55531 15.2074 3.39754L14.7361 4.27946ZM16.1317 6.60794L17.1317 6.60793C17.1317 6.27324 17.1353 5.98456 17.087 5.70817L16.1019 5.88019L15.1168 6.0522C15.1282 6.11723 15.1317 6.19991 15.1317 6.60796L16.1317 6.60794ZM15.3638 4.64881L14.7478 5.43651C14.9427 5.589 15.0742 5.80837 15.1168 6.0522L16.1019 5.88019L17.087 5.70817C16.9593 4.97669 16.5648 4.31856 15.9799 3.86111L15.3638 4.64881ZM11.4158 2.50476L11.8872 1.62284C11.4838 1.40727 11.1491 1.22805 10.8746 1.09817C10.6034 0.96992 10.3168 0.852839 10.0123 0.803095L9.85106 1.79002L9.68985 2.77694C9.71293 2.78071 9.79628 2.80059 10.0194 2.90613C10.2391 3.01004 10.523 3.16144 10.9444 3.38669L11.4158 2.50476ZM7.53789 4.85174L8.53786 4.84317C8.53376 4.36534 8.53129 4.04365 8.54112 3.80082C8.55111 3.55419 8.57216 3.47112 8.57952 3.44893L7.63041 3.13401L6.68129 2.81908C6.58412 3.11195 6.5549 3.42019 6.54276 3.71989C6.53047 4.02338 6.53401 4.40302 6.53793 4.86032L7.53789 4.85174ZM9.85106 1.79002L10.0123 0.803095C8.55744 0.565456 7.14552 1.41998 6.68129 2.81908L7.63041 3.13401L8.57952 3.44893C8.73427 2.98256 9.20491 2.69772 9.68985 2.77694L9.85106 1.79002ZM7.55127 3.91165H6.55127L6.55127 15.9117H7.55127H8.55127L8.55127 3.91165H7.55127ZM1.55127 15.9117H0.55127C0.55127 18.1208 2.34213 19.9117 4.55127 19.9117V18.9117V17.9117C3.4467 17.9117 2.55127 17.0162 2.55127 15.9117H1.55127ZM4.55127 18.9117V19.9117C6.76041 19.9117 8.55127 18.1208 8.55127 15.9117H7.55127H6.55127C6.55127 17.0162 5.65584 17.9117 4.55127 17.9117V18.9117ZM7.55127 15.9117H8.55127C8.55127 13.7025 6.76041 11.9117 4.55127 11.9117V12.9117V13.9117C5.65584 13.9117 6.55127 14.8071 6.55127 15.9117H7.55127ZM4.55127 12.9117V11.9117C2.34213 11.9117 0.55127 13.7025 0.55127 15.9117H1.55127H2.55127C2.55127 14.8071 3.4467 13.9117 4.55127 13.9117V12.9117Z" fill="#E1FF01"/>
</svg>
