<svg width="19" height="21" viewBox="0 0 19 21" fill="none" xmlns="http://www.w3.org/2000/svg">
<path d="M15.75 14.7485C14.9583 14.7485 14.25 15.061 13.7083 15.5506L6.28125 11.2277C6.33333 10.9881 6.375 10.7485 6.375 10.4985C6.375 10.2485 6.33333 10.0089 6.28125 9.76935L13.625 5.4881C14.1875 6.00893 14.9271 6.33185 15.75 6.33185C17.4792 6.33185 18.875 4.93601 18.875 3.20685C18.875 1.47768 17.4792 0.0818481 15.75 0.0818481C14.0208 0.0818481 12.625 1.47768 12.625 3.20685C12.625 3.45685 12.6667 3.69643 12.7188 3.93601L5.375 8.21726C4.8125 7.69643 4.07292 7.37351 3.25 7.37351C1.52083 7.37351 0.125 8.76935 0.125 10.4985C0.125 12.2277 1.52083 13.6235 3.25 13.6235C4.07292 13.6235 4.8125 13.3006 5.375 12.7798L12.7917 17.1131C12.7396 17.3318 12.7083 17.561 12.7083 17.7902C12.7083 19.4673 14.0729 20.8318 15.75 20.8318C17.4271 20.8318 18.7917 19.4673 18.7917 17.7902C18.7917 16.1131 17.4271 14.7485 15.75 14.7485Z" fill="white"/>
</svg>
